<?xml version="1.0" encoding="UTF-8" standalone="no"?>
<!DOCTYPE svg  PUBLIC '-//W3C//DTD SVG 1.1//EN'  'http://www.w3.org/Graphics/SVG/1.1/DTD/svg11.dtd'>
<svg version="1.1" xmlns="http://www.w3.org/2000/svg">
<defs>
<font id="DGTLSTENCIL" vert-adv-y="2048" horiz-adv-x="1024">
<font-face cap-height="1369" units-per-em="2048" unicode-range="U+0020-F002" bbox="-190 -596 2062 1850" underline-thickness="287" x-height="1369" font-family="DGTL STENCIL" ascent="1638" font-weight="400" panose-1="1 1 7 3 2 2 1 2 3 1" underline-position="-682" descent="-410"/>
<missing-glyph/>
<glyph horiz-adv-x="512" glyph-name="space" vert-adv-y="1267" unicode=" "/>
<glyph horiz-adv-x="650" glyph-name="exclam" vert-adv-y="1267" d="M177 454v915h295v-915h-295zM177 0v288h295v-288h-295z" unicode="!"/>
<glyph glyph-name="quotedbl" vert-adv-y="1267" d="M563 776v593h295v-593h-295zM166 776v593h295v-593h-295z" unicode='&quot;'/>
<glyph horiz-adv-x="1436" glyph-name="numbersign" vert-adv-y="1267" d="M1224 1096h102l-40 -287h-102l-31 -218h102l-40 -287h-102l-43 -304h-287l43 304h-225l40 287h225l109 778h287zM211 304h-102l40 287h103l30 218h-102l40 287h103l38 273h287l-39 -273h226l-41 -287h-225l-114 -809h-286z" unicode="#"/>
<glyph horiz-adv-x="1058" glyph-name="dollar" vert-adv-y="1267" d="M375 -10q-101 33 -180 114q-118 124 -126 310h291q10 -71 43 -108q46 -53 120 -53q73 0 118 53q40 46 40 109q0 58 -35 99q-23 28 -78 52l134 262q274 -125 274 -406q0 -140 -76 -255q-84 -127 -236 -179v-206h-289v208zM375 1381v193h289v-205q111 -43 183 -151 q61 -94 66 -225h-305q-15 117 -107 117q-56 0 -87 -43q-23 -30 -23 -70q0 -65 62 -94q18 -9 88 -25l-134 -265q-123 34 -190 96q-120 112 -120 288q0 126 67 226q77 116 211 158z" unicode="$"/>
<glyph horiz-adv-x="2130" glyph-name="percent" vert-adv-y="1267" d="M756 0l447 1369h185l-446 -1369h-186zM1390 452h-189q16 135 98 233q62 74 147 115q89 42 185 42q127 0 234 -69q169 -108 197 -321h-190q-16 65 -47 106q-73 97 -195 97q-120 0 -194 -97q-33 -44 -46 -106zM1201 368h189q13 -62 46 -106q74 -97 194 -97q122 0 195 97 q31 41 47 106h190q-19 -140 -105 -241q-60 -70 -145 -109q-87 -40 -181 -40q-131 0 -241 75q-165 111 -189 315zM257 998h-189q16 135 98 233q61 73 147 114q89 42 185 42q126 0 234 -69q168 -107 196 -320h-189q-16 65 -47 106q-73 96 -195 96q-120 0 -194 -97 q-33 -43 -46 -105zM68 914h189q13 -62 46 -106q74 -97 194 -97q122 0 195 97q31 41 47 106h189q-18 -140 -104 -241q-60 -70 -145 -109q-87 -40 -181 -40q-131 0 -241 75q-165 111 -189 315z" unicode="%"/>
<glyph horiz-adv-x="1351" glyph-name="ampersand" vert-adv-y="1267" d="M849 0v540h-266q-138 0 -212 26q-134 46 -208 166q-63 101 -63 227q0 211 168 331q110 79 301 79h115v-288h-103q-89 0 -130 -21q-62 -31 -62 -104q0 -48 34 -84q41 -44 163 -44h263v250h295v-250h113v-288h-113v-540h-295zM684 288v-288h-88q-138 0 -212 21 q-142 40 -223 168q-66 103 -66 233q0 87 37 169q96 -114 258 -144q-3 -23 -3 -34q0 -125 197 -125h100z" unicode="&amp;"/>
<glyph horiz-adv-x="512" glyph-name="quotesingle" vert-adv-y="1267" d="M109 776v593h295v-593h-295z" unicode="&apos;"/>
<glyph horiz-adv-x="872" glyph-name="parenleft" vert-adv-y="1267" d="M805 19l-162 -248q-172 111 -287 265q-219 291 -219 648q0 378 238 674q109 135 268 236l162 -243q-373 -248 -373 -665q0 -264 157 -472q84 -112 216 -195z" unicode="("/>
<glyph horiz-adv-x="872" glyph-name="parenright" vert-adv-y="1267" d="M68 19q131 83 216 195q157 209 157 472q0 417 -373 665l162 243q159 -102 268 -236q238 -296 238 -674q0 -357 -219 -648q-115 -153 -287 -265z" unicode=")"/>
<glyph glyph-name="asterisk" vert-adv-y="1267" d="M634 1369v-244l226 78l71 -222l-224 -75l147 -199l-190 -138l-145 202l-154 -202l-196 138l158 199l-235 75l78 222l233 -78v244h231z" unicode="*"/>
<glyph horiz-adv-x="1229" glyph-name="plus" vert-adv-y="1267" d="M471 826v396h288v-396h395v-288h-395v-395h-288v395h-396v288h396z" unicode="+"/>
<glyph horiz-adv-x="650" glyph-name="comma" vert-adv-y="1267" d="M177 -299v587h295v-294z" unicode=","/>
<glyph horiz-adv-x="539" glyph-name="hyphen" vert-adv-y="1267" d="M0 537v291h539v-291h-539z" unicode="-"/>
<glyph horiz-adv-x="650" glyph-name="period" vert-adv-y="1267" d="M177 0v288h295v-288h-295z" unicode="."/>
<glyph horiz-adv-x="991" glyph-name="slash" vert-adv-y="1267" d="M137 0l423 1369h295l-423 -1369h-295z" unicode="/"/>
<glyph horiz-adv-x="1585" glyph-name="zero" vert-adv-y="1267" d="M374 765h-298q26 213 162 377q102 122 245 191q147 70 309 70q211 0 390 -115q195 -125 283 -349q30 -78 43 -174h-298q-27 105 -80 175q-57 75 -141 120q-94 49 -199 49q-142 0 -255 -86q-125 -96 -161 -258zM76 600h298q22 -101 78 -174q61 -81 149 -125 q90 -45 189 -45q146 0 261 89q117 91 159 255h298q-30 -223 -172 -389q-101 -117 -243 -183q-144 -66 -301 -66q-220 0 -403 124q-189 129 -271 342q-31 77 -42 172z" unicode="0"/>
<glyph horiz-adv-x="593" glyph-name="one" vert-adv-y="1267" d="M170 0v906l-120 -69v325l415 247v-1409h-295z" unicode="1"/>
<glyph horiz-adv-x="1082" glyph-name="two" vert-adv-y="1267" d="M723 462h-369l245 316q39 49 59 83q25 42 25 86q0 68 -48 117q-45 46 -113 46q-157 0 -168 -188h-292q1 180 88 296q65 88 165 137q99 48 210 48q199 0 333 -143q124 -133 124 -311q0 -110 -56 -211q-30 -55 -90 -132zM-11 0l226 287h778v-287h-1004z" unicode="2"/>
<glyph horiz-adv-x="1145" glyph-name="three" vert-adv-y="1267" d="M548 546v287q55 6 85 26q59 40 59 114q0 58 -40 99q-39 41 -97 41q-80 0 -116 -64q-16 -29 -26 -88h-287q5 157 85 263q62 83 152 129q91 47 193 47q177 0 303 -125q121 -119 121 -302q0 -232 -191 -358q-94 -61 -241 -69zM81 455h295q14 -91 43 -131q53 -71 146 -71 q84 0 138 56q49 51 49 123q0 13 -2 37q70 23 139 78q62 50 104 111q53 -97 53 -207q0 -194 -131 -334q-142 -152 -350 -152q-154 0 -278 90q-187 136 -206 400z" unicode="3"/>
<glyph horiz-adv-x="1238" glyph-name="four" vert-adv-y="1267" d="M701 0v1095l295 316v-790h167v-287h-167v-334h-295zM-5 334l268 287h272v-287h-540z" unicode="4"/>
<glyph horiz-adv-x="1120" glyph-name="five" vert-adv-y="1267" d="M600 1096v287h355v-287h-355zM623 -20v304q103 61 103 164q0 104 -91 159q-60 36 -209 36h-280v740h289v-452q228 -4 335 -60q113 -58 179 -165q69 -114 69 -254q0 -224 -171 -368q-94 -80 -224 -104zM63 393l297 40q22 -101 100 -144v-308q-176 33 -285 164 q-90 110 -112 248z" unicode="5"/>
<glyph horiz-adv-x="1205" glyph-name="six" vert-adv-y="1267" d="M670 693l149 251q104 -58 161 -119q62 -65 98 -153q38 -93 38 -190q0 -133 -67 -252q-76 -134 -223 -205q-57 -27 -133 -40v299q136 54 136 197q0 87 -58 145q-32 34 -101 67zM554 1383h336l-426 -719q-71 -119 -71 -194q0 -78 51 -135q29 -33 86 -53v-298 q-157 24 -275 135q-153 146 -153 356q0 143 109 328z" unicode="6"/>
<glyph horiz-adv-x="935" glyph-name="seven" vert-adv-y="1267" d="M7 1082v287h983l-104 -287h-879zM184 0l327 915h314l-329 -915h-312z" unicode="7"/>
<glyph horiz-adv-x="1272" glyph-name="eight" vert-adv-y="1267" d="M712 -35v287q166 22 166 175q0 146 -166 167v288q112 22 112 118t-112 118v282q150 -8 247 -83q160 -125 160 -328q0 -122 -82 -238q134 -135 134 -322q0 -135 -71 -250q-117 -190 -388 -214zM560 252v-287q-189 17 -303 114q-71 61 -112 150q-44 97 -44 200 q0 187 134 322q-82 116 -82 238q0 135 77 242q114 157 330 169v-282q-112 -22 -112 -118t112 -118v-288q-166 -21 -166 -167q0 -153 166 -175z" unicode="8"/>
<glyph horiz-adv-x="1188" glyph-name="nine" vert-adv-y="1267" d="M535 690l-149 -251q-104 58 -161 118q-63 66 -98 154q-38 92 -38 189q0 134 67 253q76 134 223 205q57 27 133 40v-299q-136 -54 -136 -197q0 -88 58 -146q33 -33 101 -66zM651 0h-336l426 718q71 119 71 194q0 79 -51 136q-29 32 -86 52v298q157 -23 275 -135 q153 -145 153 -355q0 -143 -109 -328z" unicode="9"/>
<glyph horiz-adv-x="650" glyph-name="colon" vert-adv-y="1267" d="M177 541v288h295v-288h-295zM177 0v288h295v-288h-295z" unicode=":"/>
<glyph horiz-adv-x="650" glyph-name="semicolon" vert-adv-y="1267" d="M177 541v288h295v-288h-295zM177 -299v587h295v-294z" unicode=";"/>
<glyph glyph-name="less" vert-adv-y="1267" d="M955 1282v-311l-556 -288l556 -289v-311l-887 470v262z" unicode="&lt;"/>
<glyph horiz-adv-x="1229" glyph-name="equal" vert-adv-y="1267" d="M96 313v288h1038v-288h-1038zM96 764v288h1038v-288h-1038z" unicode="="/>
<glyph glyph-name="greater" vert-adv-y="1267" d="M69 1282l887 -467v-262l-887 -470v311l556 289l-556 288v311z" unicode="&gt;"/>
<glyph horiz-adv-x="1103" glyph-name="question" vert-adv-y="1267" d="M411 425v288h85q126 0 184 48q69 57 69 150q0 84 -56 142q-55 56 -138 56q-111 0 -165 -85q-26 -43 -36 -113h-288q15 181 98 290q149 196 391 196q194 0 335 -134q148 -141 148 -346q0 -182 -112 -316q-89 -107 -212 -146q-79 -24 -303 -30zM411 0v288h295v-288h-295z " unicode="?"/>
<glyph horiz-adv-x="1541" glyph-name="at" vert-adv-y="1267" d="M1187 378q46 88 63 134q36 93 36 188q0 214 -151 367q-148 149 -360 149q-257 0 -413 -209q-77 -103 -100 -244h-187q24 224 159 386q99 120 239 187q142 67 299 67q205 0 379 -111q169 -108 254 -289q68 -142 68 -304q0 -116 -25 -183q-48 -129 -51 -138h-210zM1082 187 v-187h-162q-205 1 -311 25q-252 56 -412 281q-92 134 -117 298h188q47 -189 182 -300q73 -59 147 -81q109 -35 323 -36h162zM1050 378h-283q-105 0 -159 19q-95 33 -144 120q-36 65 -36 140q0 129 91 230q62 70 146 97q47 15 142 17l-21 -217q-50 -1 -76 -12 q-62 -25 -62 -93q0 -44 32 -65q27 -19 95 -19h75l39 406h221z" unicode="@"/>
<glyph horiz-adv-x="1293" glyph-name="A" vert-adv-y="1267" d="M1041 0l-119 229h-409l147 287h116l-309 596l166 320l738 -1432h-330zM-103 0l481 935l164 -321l-316 -614h-329z" unicode="A"/>
<glyph horiz-adv-x="1253" glyph-name="B" vert-adv-y="1267" d="M596 540v287h95q91 0 131 18q67 32 67 111q0 69 -54 100q-39 22 -134 22h-105v291h74q135 0 204 -18q144 -37 231 -159q72 -101 72 -234q0 -127 -63 -228q-77 -122 -211 -166q-75 -24 -204 -24h-103zM596 0v288h95q107 0 146 24q55 34 55 105q0 10 -3 30q150 21 258 143 q36 -84 36 -179q0 -123 -68 -228q-77 -121 -218 -162q-69 -21 -204 -21h-97zM137 0v1369h295v-1369h-295z" unicode="B"/>
<glyph horiz-adv-x="1445" glyph-name="C" vert-adv-y="1267" d="M882 1105v298q146 -19 270 -85q132 -74 221 -194l-231 -183q-102 134 -260 164zM882 -38v298q160 32 261 163l233 -180q-193 -246 -494 -281zM718 259v-297q-209 30 -362 149q-135 104 -209 256q-72 148 -72 314q0 246 149 440q180 235 494 282v-298q-124 -30 -203 -101 q-69 -61 -108 -149q-37 -85 -37 -174q0 -132 76 -243q92 -133 272 -179z" unicode="C"/>
<glyph horiz-adv-x="1506" glyph-name="D" vert-adv-y="1267" d="M595 0v288h107q124 0 195 28q118 47 189 166q53 91 53 199q0 120 -63 218q-73 114 -196 158q-69 24 -210 24h-75v288h105q169 0 287 -42q193 -68 323 -254q122 -175 122 -388q0 -207 -113 -380q-130 -198 -335 -268q-111 -37 -272 -37h-117zM137 0v1369h295v-1369h-295z " unicode="D"/>
<glyph horiz-adv-x="1257" glyph-name="E" vert-adv-y="1267" d="M599 1082v287h539v-287h-539zM599 540v287h539v-287h-539zM599 0v287h539v-287h-539zM137 0v1369h295v-1369h-295z" unicode="E"/>
<glyph horiz-adv-x="1140" glyph-name="F" vert-adv-y="1267" d="M572 1082v287h513v-287h-513zM572 540v287h513v-287h-513zM123 0v1369h295v-1369h-295z" unicode="F"/>
<glyph horiz-adv-x="1580" glyph-name="G" vert-adv-y="1267" d="M796 536v287h701q15 -76 15 -143t-15 -144h-701zM1086 373h357q-62 -127 -154 -214q-91 -85 -207 -136q-140 -61 -287 -61q-202 0 -383 112q-169 104 -258 278q-79 153 -79 330q0 295 203 503q101 104 237 161q135 57 281 57q301 0 517 -223l-214 -203q-138 130 -304 130 q-189 0 -315 -137q-112 -122 -112 -287q0 -178 125 -302q126 -125 301 -125q172 0 292 117z" unicode="G"/>
<glyph horiz-adv-x="1481" glyph-name="H" vert-adv-y="1267" d="M550 542v287h382v-287h-382zM1050 0v1369h295v-1369h-295zM137 0v1369h295v-1369h-295z" unicode="H"/>
<glyph horiz-adv-x="568" glyph-name="I" vert-adv-y="1267" d="M137 0v1369h295v-1369h-295z" unicode="I"/>
<glyph horiz-adv-x="1126" glyph-name="J" vert-adv-y="1267" d="M426 261v-289q-202 24 -326 198q-85 122 -89 286h291q10 -143 124 -195zM708 1369h295v-843q-1 -158 -30 -242q-60 -174 -237 -266q-68 -34 -148 -46v289q62 26 88 71q31 57 32 181v856z" unicode="J"/>
<glyph horiz-adv-x="1280" glyph-name="K" vert-adv-y="1267" d="M765 1073l213 296h362l-391 -542zM484 683l180 252l689 -935h-363zM137 0v1369h295v-1369h-295z" unicode="K"/>
<glyph horiz-adv-x="955" glyph-name="L" vert-adv-y="1267" d="M560 0v287h396v-287h-396zM137 0v1369h295v-1369h-295z" unicode="L"/>
<glyph horiz-adv-x="1621" glyph-name="M" vert-adv-y="1267" d="M1190 0v804l-381 -305l-672 543v377l674 -545l674 545v-1419h-295zM137 0v830l295 -237v-593h-295z" unicode="M"/>
<glyph horiz-adv-x="1482" glyph-name="N" vert-adv-y="1267" d="M137 1023v390l914 -808v764h295v-1413zM137 0v806l295 -258v-548h-295z" unicode="N"/>
<glyph horiz-adv-x="1582" glyph-name="O" vert-adv-y="1267" d="M373 765h-298q26 213 162 377q102 122 245 191q147 70 309 70q211 0 390 -115q195 -125 283 -349q30 -78 43 -174h-298q-27 105 -80 175q-57 75 -141 120q-94 49 -199 49q-142 0 -255 -86q-125 -96 -161 -258zM75 600h298q22 -101 78 -174q61 -81 149 -125 q90 -45 189 -45q146 0 261 89q117 91 159 255h298q-30 -223 -172 -389q-101 -117 -243 -183q-144 -66 -301 -66q-220 0 -403 124q-189 129 -271 342q-31 77 -42 172z" unicode="O"/>
<glyph horiz-adv-x="1203" glyph-name="P" vert-adv-y="1267" d="M585 541v288h96q86 0 124 16q71 30 71 111q0 66 -51 99q-39 25 -130 25h-110v289h93q140 0 215 -25q130 -45 206 -160q68 -104 68 -228q0 -116 -61 -217q-69 -115 -189 -165q-78 -33 -220 -33h-112zM123 0v1369h295v-1369h-295z" unicode="P"/>
<glyph horiz-adv-x="1515" glyph-name="Q" vert-adv-y="1267" d="M1428 456h-330q83 120 83 246q0 169 -120 289q-118 118 -287 118q-196 0 -319 -151q-66 -82 -86 -195h-294q23 224 159 387q99 119 239 186q142 67 299 67q205 0 379 -111q169 -108 255 -289q67 -142 67 -298q0 -124 -45 -249zM1474 287v-287h-553q-205 1 -311 26 q-160 38 -290 147q-202 173 -239 431h297q48 -158 174 -241q92 -58 223 -70q60 -6 201 -6h498z" unicode="Q"/>
<glyph horiz-adv-x="1250" glyph-name="R" vert-adv-y="1267" d="M861 0l-149 420q176 4 292 64l169 -484h-312zM598 541v288h96q86 0 124 16q71 30 71 111q0 67 -51 99q-39 25 -130 25h-110v289h93q140 0 215 -25q130 -45 206 -160q68 -104 68 -228q0 -116 -61 -217q-69 -115 -189 -165q-78 -33 -220 -33h-112zM137 0v1369h295v-1369 h-295z" unicode="R"/>
<glyph horiz-adv-x="1045" glyph-name="S" vert-adv-y="1267" d="M911 997h-305q-15 117 -107 117q-56 0 -87 -43q-23 -30 -23 -70q0 -65 62 -94q19 -9 88 -25l-134 -265q-123 34 -190 96q-120 112 -120 288q0 162 107 276q118 126 299 126q138 0 244 -76q154 -112 166 -330zM67 411h291q10 -72 43 -109q46 -53 120 -53q73 0 118 53 q40 47 40 110q0 58 -35 99q-23 28 -78 52l134 262q274 -124 274 -407q0 -181 -120 -312q-134 -144 -334 -144q-152 0 -272 91q-168 126 -181 358z" unicode="S"/>
<glyph horiz-adv-x="841" glyph-name="T" vert-adv-y="1267" d="M-41 1082v287h923v-287h-923zM274 0v915h295v-915h-295z" unicode="T"/>
<glyph horiz-adv-x="1372" glyph-name="U" vert-adv-y="1267" d="M954 1369h295v-781q-1 -176 -49 -288q-69 -157 -233 -254q-100 -58 -201 -73v301q96 32 146 107q29 45 37 119q5 40 5 115v754zM123 1369h295v-754q0 -107 12 -156q28 -132 173 -185v-301q-100 16 -198 73q-164 97 -233 254q-48 112 -49 288v781z" unicode="U"/>
<glyph horiz-adv-x="1159" glyph-name="V" vert-adv-y="1267" d="M655 754l316 615h330l-481 -933zM563 -63l-738 1432h329l575 -1114z" unicode="V"/>
<glyph horiz-adv-x="1736" glyph-name="W" vert-adv-y="1267" d="M1303 872l209 497h316l-354 -850zM600 864l263 548l528 -1095l-150 -364l-378 783l-113 -236zM486 -47l-586 1416h318l438 -1064z" unicode="W"/>
<glyph horiz-adv-x="1161" glyph-name="X" vert-adv-y="1267" d="M701 1099l201 270h363l-381 -517zM943 0l-1006 1369h364l1005 -1369h-363zM-108 0l424 574l181 -246l-242 -328h-363z" unicode="X"/>
<glyph horiz-adv-x="1050" glyph-name="Y" vert-adv-y="1267" d="M232 850l-367 519h360l190 -270zM336 0v702l488 667h364l-557 -763v-606h-295z" unicode="Y"/>
<glyph horiz-adv-x="1217" glyph-name="Z" vert-adv-y="1267" d="M28 1082v287h1184l-192 -287h-992zM248 453l307 461h354l-308 -461h-353zM-55 0l193 287h1095v-287h-1288z" unicode="Z"/>
<glyph horiz-adv-x="758" glyph-name="bracketleft" vert-adv-y="1267" d="M137 1559h539v-291h-244v-1166h244v-291h-539v1748z" unicode="["/>
<glyph horiz-adv-x="991" glyph-name="backslash" vert-adv-y="1267" d="M855 0h-295l-423 1369h295z" unicode="\"/>
<glyph horiz-adv-x="758" glyph-name="bracketright" vert-adv-y="1267" d="M621 1559v-1748h-539v291h244v1166h-244v291h539z" unicode="]"/>
<glyph glyph-name="asciicircum" vert-adv-y="1267" d="M306 716h-276l309 657h347l309 -657h-277l-206 446z" unicode="^"/>
<glyph glyph-name="underscore" vert-adv-y="1267" d="M0 -109h1024v-287h-1024v287z" unicode="_"/>
<glyph glyph-name="grave" vert-adv-y="1267" d="M658 1475h-254l-201 325h253z" unicode="`"/>
<glyph horiz-adv-x="1293" glyph-name="a" vert-adv-y="1267" d="M1041 0l-119 229h-409l147 287h116l-309 596l166 320l738 -1432h-330zM-103 0l481 935l164 -321l-316 -614h-329z" unicode="a"/>
<glyph horiz-adv-x="1253" glyph-name="b" vert-adv-y="1267" d="M596 540v287h95q91 0 131 18q67 32 67 111q0 69 -54 100q-39 22 -134 22h-105v291h74q135 0 204 -18q144 -37 231 -159q72 -101 72 -234q0 -127 -63 -228q-77 -122 -211 -166q-75 -24 -204 -24h-103zM596 0v288h95q107 0 146 24q55 34 55 105q0 10 -3 30q150 21 258 143 q36 -84 36 -179q0 -123 -68 -228q-77 -121 -218 -162q-69 -21 -204 -21h-97zM137 0v1369h295v-1369h-295z" unicode="b"/>
<glyph horiz-adv-x="1445" glyph-name="c" vert-adv-y="1267" d="M882 1105v298q146 -19 270 -85q132 -74 221 -194l-231 -183q-102 134 -260 164zM882 -38v298q160 32 261 163l233 -180q-193 -246 -494 -281zM718 259v-297q-209 30 -362 149q-135 104 -209 256q-72 148 -72 314q0 246 149 440q180 235 494 282v-298q-124 -30 -203 -101 q-69 -61 -108 -149q-37 -85 -37 -174q0 -132 76 -243q92 -133 272 -179z" unicode="c"/>
<glyph horiz-adv-x="1506" glyph-name="d" vert-adv-y="1267" d="M595 0v288h107q124 0 195 28q118 47 189 166q53 91 53 199q0 120 -63 218q-73 114 -196 158q-69 24 -210 24h-75v288h105q169 0 287 -42q193 -68 323 -254q122 -175 122 -388q0 -207 -113 -380q-130 -198 -335 -268q-111 -37 -272 -37h-117zM137 0v1369h295v-1369h-295z " unicode="d"/>
<glyph horiz-adv-x="1257" glyph-name="e" vert-adv-y="1267" d="M599 1082v287h539v-287h-539zM599 540v287h539v-287h-539zM599 0v287h539v-287h-539zM137 0v1369h295v-1369h-295z" unicode="e"/>
<glyph horiz-adv-x="1140" glyph-name="f" vert-adv-y="1267" d="M572 1082v287h513v-287h-513zM572 540v287h513v-287h-513zM123 0v1369h295v-1369h-295z" unicode="f"/>
<glyph horiz-adv-x="1580" glyph-name="g" vert-adv-y="1267" d="M796 536v287h701q15 -76 15 -143t-15 -144h-701zM1086 373h357q-62 -127 -154 -214q-91 -85 -207 -136q-140 -61 -287 -61q-202 0 -383 112q-169 104 -258 278q-79 153 -79 330q0 295 203 503q101 104 237 161q135 57 281 57q301 0 517 -223l-214 -203q-138 130 -304 130 q-189 0 -315 -137q-112 -122 -112 -287q0 -178 125 -302q126 -125 301 -125q172 0 292 117z" unicode="g"/>
<glyph horiz-adv-x="1481" glyph-name="h" vert-adv-y="1267" d="M550 542v287h382v-287h-382zM1050 0v1369h295v-1369h-295zM137 0v1369h295v-1369h-295z" unicode="h"/>
<glyph horiz-adv-x="568" glyph-name="i" vert-adv-y="1267" d="M137 0v1369h295v-1369h-295z" unicode="i"/>
<glyph horiz-adv-x="1126" glyph-name="j" vert-adv-y="1267" d="M426 261v-289q-202 24 -326 198q-85 122 -89 286h291q10 -143 124 -195zM708 1369h295v-843q-1 -158 -30 -242q-60 -174 -237 -266q-68 -34 -148 -46v289q62 26 88 71q31 57 32 181v856z" unicode="j"/>
<glyph horiz-adv-x="1280" glyph-name="k" vert-adv-y="1267" d="M765 1073l213 296h362l-391 -542zM484 683l180 252l689 -935h-363zM137 0v1369h295v-1369h-295z" unicode="k"/>
<glyph horiz-adv-x="955" glyph-name="l" vert-adv-y="1267" d="M560 0v287h396v-287h-396zM137 0v1369h295v-1369h-295z" unicode="l"/>
<glyph horiz-adv-x="1621" glyph-name="m" vert-adv-y="1267" d="M1190 0v804l-381 -305l-672 543v377l674 -545l674 545v-1419h-295zM137 0v830l295 -237v-593h-295z" unicode="m"/>
<glyph horiz-adv-x="1482" glyph-name="n" vert-adv-y="1267" d="M137 1023v390l914 -808v764h295v-1413zM137 0v806l295 -258v-548h-295z" unicode="n"/>
<glyph horiz-adv-x="1582" glyph-name="o" vert-adv-y="1267" d="M373 765h-298q26 213 162 377q102 122 245 191q147 70 309 70q211 0 390 -115q195 -125 283 -349q30 -78 43 -174h-298q-27 105 -80 175q-57 75 -141 120q-94 49 -199 49q-142 0 -255 -86q-125 -96 -161 -258zM75 600h298q22 -101 78 -174q61 -81 149 -125 q90 -45 189 -45q146 0 261 89q117 91 159 255h298q-30 -223 -172 -389q-101 -117 -243 -183q-144 -66 -301 -66q-220 0 -403 124q-189 129 -271 342q-31 77 -42 172z" unicode="o"/>
<glyph horiz-adv-x="1203" glyph-name="p" vert-adv-y="1267" d="M585 541v288h96q86 0 124 16q71 30 71 111q0 66 -51 99q-39 25 -130 25h-110v289h93q140 0 215 -25q130 -45 206 -160q68 -104 68 -228q0 -116 -61 -217q-69 -115 -189 -165q-78 -33 -220 -33h-112zM123 0v1369h295v-1369h-295z" unicode="p"/>
<glyph horiz-adv-x="1515" glyph-name="q" vert-adv-y="1267" d="M1428 456h-330q83 120 83 246q0 169 -120 289q-118 118 -287 118q-196 0 -319 -151q-66 -82 -86 -195h-294q23 224 159 387q99 119 239 186q142 67 299 67q205 0 379 -111q169 -108 255 -289q67 -142 67 -298q0 -124 -45 -249zM1474 287v-287h-553q-205 1 -311 26 q-160 38 -290 147q-202 173 -239 431h297q48 -158 174 -241q92 -58 223 -70q60 -6 201 -6h498z" unicode="q"/>
<glyph horiz-adv-x="1250" glyph-name="r" vert-adv-y="1267" d="M861 0l-149 420q176 4 292 64l169 -484h-312zM598 541v288h96q86 0 124 16q71 30 71 111q0 67 -51 99q-39 25 -130 25h-110v289h93q140 0 215 -25q130 -45 206 -160q68 -104 68 -228q0 -116 -61 -217q-69 -115 -189 -165q-78 -33 -220 -33h-112zM137 0v1369h295v-1369 h-295z" unicode="r"/>
<glyph horiz-adv-x="1045" glyph-name="s" vert-adv-y="1267" d="M911 997h-305q-15 117 -107 117q-56 0 -87 -43q-23 -30 -23 -70q0 -65 62 -94q19 -9 88 -25l-134 -265q-123 34 -190 96q-120 112 -120 288q0 162 107 276q118 126 299 126q138 0 244 -76q154 -112 166 -330zM67 411h291q10 -72 43 -109q46 -53 120 -53q73 0 118 53 q40 47 40 110q0 58 -35 99q-23 28 -78 52l134 262q274 -124 274 -407q0 -181 -120 -312q-134 -144 -334 -144q-152 0 -272 91q-168 126 -181 358z" unicode="s"/>
<glyph horiz-adv-x="841" glyph-name="t" vert-adv-y="1267" d="M-41 1082v287h923v-287h-923zM274 0v915h295v-915h-295z" unicode="t"/>
<glyph horiz-adv-x="1372" glyph-name="u" vert-adv-y="1267" d="M954 1369h295v-781q-1 -176 -49 -288q-69 -157 -233 -254q-100 -58 -201 -73v301q96 32 146 107q29 45 37 119q5 40 5 115v754zM123 1369h295v-754q0 -107 12 -156q28 -132 173 -185v-301q-100 16 -198 73q-164 97 -233 254q-48 112 -49 288v781z" unicode="u"/>
<glyph horiz-adv-x="1159" glyph-name="v" vert-adv-y="1267" d="M655 754l316 615h330l-481 -933zM563 -63l-738 1432h329l575 -1114z" unicode="v"/>
<glyph horiz-adv-x="1736" glyph-name="w" vert-adv-y="1267" d="M1303 872l209 497h316l-354 -850zM600 864l263 548l528 -1095l-150 -364l-378 783l-113 -236zM486 -47l-586 1416h318l438 -1064z" unicode="w"/>
<glyph horiz-adv-x="1161" glyph-name="x" vert-adv-y="1267" d="M701 1099l201 270h363l-381 -517zM943 0l-1006 1369h364l1005 -1369h-363zM-108 0l424 574l181 -246l-242 -328h-363z" unicode="x"/>
<glyph horiz-adv-x="1050" glyph-name="y" vert-adv-y="1267" d="M232 850l-367 519h360l190 -270zM336 0v702l488 667h364l-557 -763v-606h-295z" unicode="y"/>
<glyph horiz-adv-x="1217" glyph-name="z" vert-adv-y="1267" d="M28 1082v287h1184l-192 -287h-992zM248 453l307 461h354l-308 -461h-353zM-55 0l193 287h1095v-287h-1288z" unicode="z"/>
<glyph horiz-adv-x="902" glyph-name="braceleft" vert-adv-y="1267" d="M279 923q4 18 4 32v190q0 121 66 225q81 128 223 168q71 20 211 21h37v-289h-49h-9q-182 0 -187 -125v-190q-1 -100 -16 -161q-126 111 -280 129zM82 829h57q106 0 211 -47q109 -47 168 -125q56 -70 57 -243v-190q6 -125 187 -125h9h49v-288h-37q-140 1 -211 21 q-142 40 -223 167q-66 104 -66 225v190q0 63 -49 98q-41 29 -95 29h-57v288z" unicode="{"/>
<glyph glyph-name="bar" vert-adv-y="1267" d="M355 1365h315v-1706h-315v1706z" unicode="|"/>
<glyph horiz-adv-x="902" glyph-name="braceright" vert-adv-y="1267" d="M624 446q-4 -18 -4 -32v-190q0 -121 -66 -225q-81 -127 -223 -167q-71 -20 -212 -21h-37v288h49h9q182 0 188 125v190q1 100 16 161q126 -111 280 -129zM820 541h-56q-105 0 -211 47q-110 47 -168 125q-56 70 -57 243v189q-5 125 -188 125h-9h-49v289h37q141 -1 212 -21 q142 -40 223 -168q66 -104 66 -225v-189q0 -63 49 -98q40 -29 95 -29h56v-288z" unicode="}"/>
<glyph horiz-adv-x="1365" glyph-name="asciitilde" vert-adv-y="1267" d="M342 1128l-152 127q40 98 88 162q88 119 216 119q59 0 154 -37q42 -17 136 -58q58 -25 101 -25q54 0 96 52q21 27 47 74l152 -127q-49 -115 -94 -172q-89 -112 -212 -112q-47 0 -127 32q-47 18 -148 60q-73 30 -115 30q-53 0 -92 -48q-21 -27 -50 -77z" unicode="~"/>
<glyph horiz-adv-x="512" glyph-name="nonbreakingspace" vert-adv-y="1267" unicode=" "/>
<glyph horiz-adv-x="650" glyph-name="exclamdown" vert-adv-y="1267" d="M472 915v-915h-295v915h295zM472 1369v-288h-295v288h295z" unicode="¡"/>
<glyph horiz-adv-x="1149" glyph-name="cent" vert-adv-y="1267" d="M454 1153v216h289v-205q210 -51 334 -237l-229 -179q-95 137 -232 137q-125 0 -202 -101q-24 -31 -38 -73h-301q20 145 121 269q105 125 258 173zM743 97v-227h-289v238q-172 54 -280 202q-81 112 -99 240h301q15 -42 38 -72q76 -102 202 -102q137 0 226 135l238 -178 q-95 -125 -200 -183q-66 -36 -137 -53z" unicode="¢"/>
<glyph horiz-adv-x="1138" glyph-name="sterling" vert-adv-y="1267" d="M574 541v287h372v-287h-372zM574 0v287h524v-287h-524zM114 0v844q0 150 25 230q48 153 190 248q119 79 273 79t277 -76q202 -126 223 -375h-297q-34 170 -196 170q-121 0 -173 -91q-31 -54 -31 -179v-850h-291z" unicode="£"/>
<glyph horiz-adv-x="1229" glyph-name="currency" vert-adv-y="1267" d="M907 1134l120 120l154 -154l-119 -119q90 -136 90 -295q0 -156 -89 -296l118 -118l-154 -154l-120 120q-108 -68 -227 -82v221q77 19 129 59q56 42 89 104q36 70 36 147q0 155 -125 251q-54 41 -129 57v221q120 -12 227 -82zM321 238l-120 -120l-154 154l118 118 q-89 140 -89 296t90 295l-119 119l154 154l120 -120q106 70 227 82v-221q-75 -16 -129 -57q-125 -96 -125 -251q0 -157 125 -251q52 -40 129 -59v-221q-120 14 -227 82z" unicode="¤"/>
<glyph horiz-adv-x="1242" glyph-name="yen" vert-adv-y="1267" d="M1075 1088h95v-253h-244l-135 -228h294v-253h-316v-354h-295v354h-316v253h294l439 762h351zM316 835h-243v253h94l-166 281h351l188 -325l-172 -297z" unicode="¥"/>
<glyph glyph-name="brokenbar" vert-adv-y="1267" d="M355 314h315v-655h-315v655zM355 1365h315v-721h-315v721z" unicode="¦"/>
<glyph horiz-adv-x="937" glyph-name="section" vert-adv-y="1267" d="M108 730l238 -135q-2 -18 -2 -29q0 -70 63 -108q30 -18 74 -19l257 -145q64 -95 64 -204q0 -139 -92 -238q-101 -108 -256 -108q-119 0 -209 66q-133 97 -143 290h270q11 -98 84 -98q43 0 67 33q18 24 18 56q0 38 -29 61q-23 17 -84 27q-146 24 -237 114 q-116 115 -116 277q0 78 33 160zM431 692l-247 140q-82 98 -82 225q0 139 92 238q101 108 257 108q118 0 208 -66q134 -97 144 -290h-270q-11 99 -84 99q-44 0 -68 -33q-18 -24 -18 -56q0 -49 48 -72q24 -11 89 -22q116 -19 175 -55q95 -60 145 -158q42 -83 42 -179 q0 -90 -42 -179l-225 128q9 29 9 49q0 54 -38 92t-92 38q-18 0 -43 -7z" unicode="§"/>
<glyph glyph-name="dieresis" vert-adv-y="1267" d="M570 1502v246h244v-246h-244zM210 1502v246h244v-246h-244z" unicode="¨"/>
<glyph horiz-adv-x="1534" glyph-name="copyright" vert-adv-y="1267" d="M68 603h187q28 -168 121 -276q156 -180 391 -180q156 0 283 85q188 126 229 371h187q-24 -224 -159 -388q-98 -119 -240 -186q-143 -67 -300 -67q-212 0 -388 116q-193 127 -273 349q-27 76 -38 176zM1466 763h-187q-28 168 -121 275q-157 180 -391 180q-156 0 -283 -85 q-188 -126 -229 -370h-187q24 224 158 387q99 119 240 185q143 67 301 67q212 0 388 -116q193 -126 273 -347q27 -76 38 -176zM809 926v190q196 -22 306 -174l-147 -116q-63 83 -159 100zM809 250v189q98 18 159 100l149 -114q-120 -155 -308 -175zM726 438v-188 q-132 18 -225 90q-80 62 -125 153q-43 90 -43 189q0 147 89 264q109 142 304 170v-190q-75 -17 -122 -58q-83 -75 -83 -186q0 -115 88 -188q45 -38 117 -56z" unicode="©"/>
<glyph horiz-adv-x="787" glyph-name="ordfeminine" vert-adv-y="1267" d="M705 747h-283q-105 0 -161 19q-98 33 -155 120q-51 78 -51 171q0 149 115 243q51 43 113 58q40 10 119 11v-216q-129 -4 -129 -96q0 -50 39 -75q28 -18 97 -18h78v405h218v-622z" unicode="ª"/>
<glyph horiz-adv-x="985" glyph-name="guillemotleft" vert-adv-y="1267" d="M478 364h-229l-112 319l112 314h229l-110 -314zM767 364h-228l-113 319l113 314h228l-110 -314z" unicode="«"/>
<glyph glyph-name="logicalnot" vert-adv-y="1267" d="M650 0v322h-582v274h887v-596h-305z" unicode="¬"/>
<glyph horiz-adv-x="539" glyph-name="sfthyphen" vert-adv-y="1267" d="M0 537v291h539v-291h-539z" unicode="­"/>
<glyph horiz-adv-x="1534" glyph-name="registered" vert-adv-y="1267" d="M68 603h187q28 -168 121 -276q156 -180 391 -180q156 0 283 85q188 126 229 371h187q-24 -224 -159 -388q-98 -119 -240 -186q-143 -67 -300 -67q-212 0 -388 116q-193 127 -273 349q-27 76 -38 176zM1466 763h-187q-28 168 -121 275q-157 180 -391 180q-156 0 -283 -85 q-188 -126 -229 -370h-187q24 224 158 387q99 119 240 185q143 67 301 67q212 0 388 -116q193 -126 273 -347q27 -76 38 -176zM881 273l-92 257h95q74 5 95 27l100 -284h-198zM744 592v184h64q48 0 70 9q38 16 38 59q0 67 -100 67h-72v184h62q83 0 129 -15q79 -27 124 -97 q42 -63 42 -138q0 -121 -92 -198q-67 -55 -192 -55h-73zM472 273v822h188v-822h-188z" unicode="®"/>
<glyph glyph-name="glyph113" vert-adv-y="1267" d="M0 1761h1024v-287h-1024v287z" unicode="¯"/>
<glyph horiz-adv-x="1000" glyph-name="degree" vert-adv-y="1267" d="M458 776v-234q-135 16 -233 98q-74 62 -115 147q-42 89 -42 185q0 127 69 234q108 169 321 197v-235q-51 -13 -83 -38q-75 -59 -75 -158q0 -98 76 -159q33 -26 82 -37zM542 542v234q49 11 82 37q76 61 76 159q0 99 -75 158q-33 26 -83 38v234q140 -18 241 -104 q70 -60 109 -145q40 -87 40 -181q0 -131 -75 -241q-111 -165 -315 -189z" unicode="°"/>
<glyph horiz-adv-x="1229" glyph-name="plusminus" vert-adv-y="1267" d="M96 0v288h1038v-288h-1038zM471 1044v325h288v-325h375v-288h-375v-325h-288v325h-375v288h375z" unicode="±"/>
<glyph horiz-adv-x="822" glyph-name="twosuperior" vert-adv-y="1267" d="M531 819h-255l167 197q52 62 52 95q0 37 -28 64q-28 25 -69 25q-94 0 -101 -110h-199q-1 6 -1 12q0 25 11 76q21 97 115 158q79 51 177 51q131 0 219 -87q81 -80 81 -188q0 -94 -95 -206zM43 546l156 183h508v-183h-664z" unicode="²"/>
<glyph horiz-adv-x="822" glyph-name="threesuperior" vert-adv-y="1267" d="M389 868v183q92 7 92 76q0 31 -23 54q-23 22 -58 22q-47 0 -68 -35q-10 -16 -17 -55h-197q4 102 57 167q86 106 226 106q116 0 198 -76q80 -72 80 -183q0 -141 -126 -217q-62 -37 -164 -42zM89 828h202q9 -57 28 -80q31 -39 87 -39q51 0 83 31q30 28 30 67q0 11 -2 27 q99 28 164 119q40 -65 40 -134q0 -117 -86 -202q-93 -92 -229 -92q-100 0 -181 54q-124 83 -136 249z" unicode="³"/>
<glyph glyph-name="acute" vert-adv-y="1267" d="M366 1475l202 325h253l-201 -325h-254z" unicode="´"/>
<glyph horiz-adv-x="1173" glyph-name="mu1" vert-adv-y="1267" d="M786 1096h265v-1096h-236v67q-79 -68 -163 -88v264q66 23 102 76q32 50 32 175v602zM122 1095h263v-602q0 -134 41 -187q33 -41 94 -64v-263q-93 21 -174 99l39 -351h-263v1368z" unicode="µ"/>
<glyph horiz-adv-x="1229" glyph-name="paragraph" vert-adv-y="1267" d="M864 -218v1587h236v-1587h-236zM497 1132h-131v-513q-106 2 -161 23q-108 40 -170 144q-56 95 -56 207q0 105 50 197q57 104 155 149q65 30 182 30h367v-1587h-236v1350z" unicode="¶"/>
<glyph horiz-adv-x="650" glyph-name="glyph121" vert-adv-y="1267" d="M177 538v288h295v-288h-295z" unicode="·"/>
<glyph glyph-name="cedilla" vert-adv-y="1267" d="M456 -109q100 -2 168 -31q141 -61 141 -210q0 -109 -78 -179q-74 -67 -190 -67q-120 0 -207 80l134 114q36 -14 61 -14q33 0 57 20q28 24 28 61q0 76 -114 82v144z" unicode="¸"/>
<glyph horiz-adv-x="822" glyph-name="onesuperior" vert-adv-y="1267" d="M324 546v530l-77 -41v207l279 154v-850h-202z" unicode="¹"/>
<glyph horiz-adv-x="760" glyph-name="ordmasculine" vert-adv-y="1267" d="M705 1111h-219q-22 71 -106 71t-105 -71h-220q11 93 74 168q92 107 251 107q172 0 265 -125q51 -69 60 -150zM486 1006h219q-11 -94 -74 -168q-92 -108 -251 -108q-172 0 -265 125q-50 69 -60 151h220q22 -65 105 -65q84 0 106 65z" unicode="º"/>
<glyph horiz-adv-x="985" glyph-name="guillemotright" vert-adv-y="1267" d="M507 364l111 319l-111 314h229l112 -314l-112 -319h-229zM218 364l110 319l-110 314h229l112 -314l-112 -319h-229z" unicode="»"/>
<glyph horiz-adv-x="1886" glyph-name="onequarter" vert-adv-y="1267" d="M1478 0v655l202 201v-476h107v-183h-107v-197h-202zM1016 197l185 183h184v-183h-369zM628 0l446 1369h186l-447 -1369h-185zM324 546v530l-77 -41v207l279 154v-850h-202z" unicode="¼"/>
<glyph horiz-adv-x="1886" glyph-name="onehalf" vert-adv-y="1267" d="M1596 272h-255l167 198q52 62 52 95q0 38 -28 64t-69 26q-95 0 -101 -111h-199q-1 5 -1 12q0 104 58 174q92 112 245 112q131 0 219 -87q81 -80 81 -188q0 -66 -37 -129q-18 -32 -58 -79zM1108 0l156 183h508v-183h-664zM628 0l446 1369h186l-447 -1369h-185zM324 546 v530l-77 -41v207l279 154v-850h-202z" unicode="½"/>
<glyph horiz-adv-x="1886" glyph-name="threequarters" vert-adv-y="1267" d="M1477 0v655l202 201v-476h108v-183h-108v-197h-202zM1016 197l185 183h184v-183h-369zM668 0l447 1369h185l-446 -1369h-186zM389 868v183q92 7 92 76q0 31 -23 54q-23 22 -58 22q-47 0 -68 -35q-10 -16 -17 -55h-197q4 102 57 167q86 106 226 106q116 0 198 -76 q80 -72 80 -183q0 -141 -126 -217q-62 -37 -164 -42zM89 828h202q9 -57 28 -80q31 -39 87 -39q51 0 83 31q30 28 30 67q0 11 -2 27q99 28 164 119q40 -65 40 -134q0 -117 -86 -202q-93 -92 -229 -92q-100 0 -181 54q-124 83 -136 249z" unicode="¾"/>
<glyph horiz-adv-x="1103" glyph-name="questiondown" vert-adv-y="1267" d="M693 945v-288h-85q-126 0 -184 -48q-69 -58 -69 -151q0 -83 56 -142q55 -56 138 -56q111 0 164 86q27 42 36 113h289q-16 -181 -98 -290q-149 -197 -391 -197q-195 0 -336 135q-147 141 -147 345q0 183 112 317q89 107 212 146q79 24 303 30zM693 1369v-288h-295v288h295 z" unicode="¿"/>
<glyph horiz-adv-x="1293" glyph-name="Agrave" vert-adv-y="1267" d="M1041 0l-119 229h-409l147 287h116l-309 596l166 320l738 -1432h-330zM-103 0l481 935l164 -321l-316 -614h-329zM792 1475h-254l-201 325h253z" unicode="À"/>
<glyph horiz-adv-x="1293" glyph-name="Aacute" vert-adv-y="1267" d="M1041 0l-119 229h-409l147 287h116l-309 596l166 320l738 -1432h-330zM-103 0l481 935l164 -321l-316 -614h-329zM501 1475l202 325h253l-201 -325h-254z" unicode="Á"/>
<glyph horiz-adv-x="1293" glyph-name="Acircumflex" vert-adv-y="1267" d="M1041 0l-119 229h-409l147 287h116l-309 596l166 320l738 -1432h-330zM-103 0l481 935l164 -321l-316 -614h-329zM288 1475l240 320h236l241 -320h-268l-91 120l-91 -120h-267z" unicode="Â"/>
<glyph horiz-adv-x="1293" glyph-name="Atilde" vert-adv-y="1267" d="M1041 0l-119 229h-409l147 287h116l-309 596l166 320l738 -1432h-330zM-103 0l481 935l164 -321l-316 -614h-329zM563 1495h-196q3 107 21 154q39 105 141 105q43 0 124 -34q40 -16 52 -16q27 0 32 44h189q-1 -65 -6 -103q-10 -66 -51 -112t-117 -46q-33 0 -110 29 q-37 14 -51 14q-23 0 -28 -35z" unicode="Ã"/>
<glyph horiz-adv-x="1293" glyph-name="Adieresis" vert-adv-y="1267" d="M1041 0l-119 229h-409l147 287h116l-309 596l166 320l738 -1432h-330zM-103 0l481 935l164 -321l-316 -614h-329zM705 1502v246h244v-246h-244zM345 1502v246h244v-246h-244z" unicode="Ä"/>
<glyph horiz-adv-x="1293" glyph-name="Aring" vert-adv-y="1267" d="M646 1700q-21 0 -36 -15t-15 -36q0 -22 15 -37t37 -15q21 0 36 15t15 37q0 21 -15 36q-16 15 -37 15zM649 1850q80 0 140 -59q59 -59 59 -142q0 -84 -59 -143t-142 -59t-143 59q-59 60 -59 142q0 85 59 143q61 59 145 59zM1041 0l-119 229h-409l147 287h116l-309 596 l166 320l738 -1432h-330zM-103 0l481 935l164 -321l-316 -614h-329z" unicode="Å"/>
<glyph horiz-adv-x="1863" glyph-name="AE" vert-adv-y="1267" d="M1200 1082v287h543v-287h-543zM1200 540v287h543v-287h-543zM1200 0v287h543v-287h-543zM-190 0l776 1142v-521l-72 -107h226v855h295v-1369h-295v227h-421l-154 -227h-355z" unicode="Æ"/>
<glyph horiz-adv-x="1445" glyph-name="Ccedilla" vert-adv-y="1267" d="M718 -109q101 -2 168 -31q141 -61 141 -210q0 -109 -78 -179q-73 -67 -189 -67q-121 0 -208 80l134 114q36 -14 61 -14q33 0 57 20q28 24 28 61q0 76 -114 82v144zM882 1105v298q146 -19 270 -85q132 -74 221 -194l-231 -183q-102 134 -260 164zM882 -38v298 q160 32 261 163l233 -180q-193 -246 -494 -281zM718 259v-297q-209 30 -362 149q-135 104 -209 256q-72 148 -72 314q0 246 149 440q180 235 494 282v-298q-124 -30 -203 -101q-69 -61 -108 -149q-37 -85 -37 -174q0 -132 76 -243q92 -133 272 -179z" unicode="Ç"/>
<glyph horiz-adv-x="1257" glyph-name="Egrave" vert-adv-y="1267" d="M599 1082v287h539v-287h-539zM599 540v287h539v-287h-539zM599 0v287h539v-287h-539zM137 0v1369h295v-1369h-295zM775 1475h-254l-201 325h253z" unicode="È"/>
<glyph horiz-adv-x="1257" glyph-name="Eacute" vert-adv-y="1267" d="M599 1082v287h539v-287h-539zM599 540v287h539v-287h-539zM599 0v287h539v-287h-539zM137 0v1369h295v-1369h-295zM484 1475l202 325h253l-201 -325h-254z" unicode="É"/>
<glyph horiz-adv-x="1257" glyph-name="Ecircumflex" vert-adv-y="1267" d="M599 1082v287h539v-287h-539zM599 540v287h539v-287h-539zM599 0v287h539v-287h-539zM137 0v1369h295v-1369h-295zM271 1475l240 320h236l241 -320h-268l-91 120l-91 -120h-267z" unicode="Ê"/>
<glyph horiz-adv-x="1257" glyph-name="Edieresis" vert-adv-y="1267" d="M599 1082v287h539v-287h-539zM599 540v287h539v-287h-539zM599 0v287h539v-287h-539zM137 0v1369h295v-1369h-295zM687 1502v246h244v-246h-244zM327 1502v246h244v-246h-244z" unicode="Ë"/>
<glyph horiz-adv-x="568" glyph-name="Igrave" vert-adv-y="1267" d="M137 0v1369h295v-1369h-295zM430 1475h-254l-201 325h253z" unicode="Ì"/>
<glyph horiz-adv-x="568" glyph-name="Iacute" vert-adv-y="1267" d="M137 0v1369h295v-1369h-295zM139 1475l202 325h253l-201 -325h-254z" unicode="Í"/>
<glyph horiz-adv-x="568" glyph-name="Icircumflex" vert-adv-y="1267" d="M137 0v1369h295v-1369h-295zM-74 1475l240 320h236l241 -320h-268l-91 120l-91 -120h-267z" unicode="Î"/>
<glyph horiz-adv-x="568" glyph-name="Idieresis" vert-adv-y="1267" d="M136 0v1369h295v-1369h-295zM329 1516v232h230v-232h-230zM9 1516v232h230v-232h-230z" unicode="Ï"/>
<glyph horiz-adv-x="1506" glyph-name="Eth" vert-adv-y="1267" d="M600 561v253h293v-253h-293zM595 0v288h107q124 0 195 28q118 47 189 166q53 91 53 199q0 120 -63 218q-73 114 -196 158q-69 24 -210 24h-75v288h105q169 0 287 -42q193 -68 323 -254q122 -175 122 -388q0 -207 -113 -380q-130 -198 -335 -268q-111 -37 -272 -37h-117z M137 0v561h-164v253h164v555h295v-1369h-295z" unicode="Ð"/>
<glyph horiz-adv-x="1482" glyph-name="Ntilde" vert-adv-y="1267" d="M137 1023v390l914 -808v764h295v-1413zM137 0v806l295 -258v-548h-295zM658 1495h-196q3 107 21 154q39 105 141 105q43 0 124 -34q40 -16 52 -16q27 0 32 44h189q-1 -65 -6 -103q-10 -66 -51 -112t-117 -46q-33 0 -110 29q-37 14 -51 14q-23 0 -28 -35z" unicode="Ñ"/>
<glyph horiz-adv-x="1582" glyph-name="Ograve" vert-adv-y="1267" d="M373 765h-298q26 213 162 377q102 122 245 191q147 70 309 70q211 0 390 -115q195 -125 283 -349q30 -78 43 -174h-298q-27 105 -80 175q-57 75 -141 120q-94 49 -199 49q-142 0 -255 -86q-125 -96 -161 -258zM75 600h298q22 -101 78 -174q61 -81 149 -125 q90 -45 189 -45q146 0 261 89q117 91 159 255h298q-30 -223 -172 -389q-101 -117 -243 -183q-144 -66 -301 -66q-220 0 -403 124q-189 129 -271 342q-31 77 -42 172zM937 1475h-254l-201 325h253z" unicode="Ò"/>
<glyph horiz-adv-x="1582" glyph-name="Oacute" vert-adv-y="1267" d="M373 765h-298q26 213 162 377q102 122 245 191q147 70 309 70q211 0 390 -115q195 -125 283 -349q30 -78 43 -174h-298q-27 105 -80 175q-57 75 -141 120q-94 49 -199 49q-142 0 -255 -86q-125 -96 -161 -258zM75 600h298q22 -101 78 -174q61 -81 149 -125 q90 -45 189 -45q146 0 261 89q117 91 159 255h298q-30 -223 -172 -389q-101 -117 -243 -183q-144 -66 -301 -66q-220 0 -403 124q-189 129 -271 342q-31 77 -42 172zM645 1475l202 325h253l-201 -325h-254z" unicode="Ó"/>
<glyph horiz-adv-x="1582" glyph-name="Ocircumflex" vert-adv-y="1267" d="M373 765h-298q26 213 162 377q102 122 245 191q147 70 309 70q211 0 390 -115q195 -125 283 -349q30 -78 43 -174h-298q-27 105 -80 175q-57 75 -141 120q-94 49 -199 49q-142 0 -255 -86q-125 -96 -161 -258zM75 600h298q22 -101 78 -174q61 -81 149 -125 q90 -45 189 -45q146 0 261 89q117 91 159 255h298q-30 -223 -172 -389q-101 -117 -243 -183q-144 -66 -301 -66q-220 0 -403 124q-189 129 -271 342q-31 77 -42 172zM433 1475l240 320h236l241 -320h-268l-91 120l-91 -120h-267z" unicode="Ô"/>
<glyph horiz-adv-x="1582" glyph-name="Otilde" vert-adv-y="1267" d="M373 765h-298q26 213 162 377q102 122 245 191q147 70 309 70q211 0 390 -115q195 -125 283 -349q30 -78 43 -174h-298q-27 105 -80 175q-57 75 -141 120q-94 49 -199 49q-142 0 -255 -86q-125 -96 -161 -258zM75 600h298q22 -101 78 -174q61 -81 149 -125 q90 -45 189 -45q146 0 261 89q117 91 159 255h298q-30 -223 -172 -389q-101 -117 -243 -183q-144 -66 -301 -66q-220 0 -403 124q-189 129 -271 342q-31 77 -42 172zM707 1495h-196q3 107 21 154q39 105 141 105q43 0 124 -34q40 -16 52 -16q27 0 32 44h189q-1 -65 -6 -103 q-10 -66 -51 -112t-117 -46q-33 0 -110 29q-37 14 -51 14q-23 0 -28 -35z" unicode="Õ"/>
<glyph horiz-adv-x="1582" glyph-name="Odieresis" vert-adv-y="1267" d="M849 1502v246h244v-246h-244zM489 1502v246h244v-246h-244zM373 765h-298q26 213 162 377q102 122 245 191q147 70 309 70q211 0 390 -115q195 -125 283 -349q30 -78 43 -174h-298q-27 105 -80 175q-57 75 -141 120q-94 49 -199 49q-142 0 -255 -86q-125 -96 -161 -258z M75 600h298q22 -101 78 -174q61 -81 149 -125q90 -45 189 -45q146 0 261 89q117 91 159 255h298q-30 -223 -172 -389q-101 -117 -243 -183q-144 -66 -301 -66q-220 0 -403 124q-189 129 -271 342q-31 77 -42 172z" unicode="Ö"/>
<glyph horiz-adv-x="1229" glyph-name="multiply" vert-adv-y="1267" d="M411 683l-319 319l203 203l320 -319l319 319l204 -203l-320 -319l320 -320l-204 -203l-319 319l-320 -319l-203 203z" unicode="×"/>
<glyph horiz-adv-x="1582" glyph-name="Oslash" vert-adv-y="1267" d="M1183 1285l126 127l207 -202l-128 -128q97 -145 117 -317h-298q-27 105 -80 175q-57 75 -141 120q-94 49 -198 49q-142 0 -256 -86q-125 -96 -161 -258h-298q26 213 163 377q102 122 245 191q147 70 307 70q212 0 395 -118zM188 287q-97 149 -115 313h298 q22 -101 78 -174q61 -81 150 -125q89 -45 189 -45q145 0 261 89q117 91 158 255h298q-30 -223 -172 -389q-100 -117 -243 -183q-144 -66 -300 -66q-215 0 -399 122l-124 -125l-201 205z" unicode="Ø"/>
<glyph horiz-adv-x="1372" glyph-name="Ugrave" vert-adv-y="1267" d="M954 1369h295v-781q-1 -176 -49 -288q-69 -157 -233 -254q-100 -58 -201 -73v301q96 32 146 107q29 45 37 119q5 40 5 115v754zM123 1369h295v-754q0 -107 12 -156q28 -132 173 -185v-301q-100 16 -198 73q-164 97 -233 254q-48 112 -49 288v781zM832 1475h-254l-201 325 h253z" unicode="Ù"/>
<glyph horiz-adv-x="1372" glyph-name="Uacute" vert-adv-y="1267" d="M954 1369h295v-781q-1 -176 -49 -288q-69 -157 -233 -254q-100 -58 -201 -73v301q96 32 146 107q29 45 37 119q5 40 5 115v754zM123 1369h295v-754q0 -107 12 -156q28 -132 173 -185v-301q-100 16 -198 73q-164 97 -233 254q-48 112 -49 288v781zM540 1475l202 325h253 l-201 -325h-254z" unicode="Ú"/>
<glyph horiz-adv-x="1372" glyph-name="Ucircumflex" vert-adv-y="1267" d="M954 1369h295v-781q-1 -176 -49 -288q-69 -157 -233 -254q-100 -58 -201 -73v301q96 32 146 107q29 45 37 119q5 40 5 115v754zM123 1369h295v-754q0 -107 12 -156q28 -132 173 -185v-301q-100 16 -198 73q-164 97 -233 254q-48 112 -49 288v781zM328 1475l240 320h236 l241 -320h-268l-91 120l-91 -120h-267z" unicode="Û"/>
<glyph horiz-adv-x="1372" glyph-name="Udieresis" vert-adv-y="1267" d="M954 1369h295v-781q-1 -176 -49 -288q-69 -157 -233 -254q-100 -58 -201 -73v301q96 32 146 107q29 45 37 119q5 40 5 115v754zM123 1369h295v-754q0 -107 12 -156q28 -132 173 -185v-301q-100 16 -198 73q-164 97 -233 254q-48 112 -49 288v781zM744 1502v246h244v-246 h-244zM384 1502v246h244v-246h-244z" unicode="Ü"/>
<glyph horiz-adv-x="1050" glyph-name="Yacute" vert-adv-y="1267" d="M232 850l-367 519h360l190 -270zM336 0v702l488 667h364l-557 -763v-606h-295zM420 1475l202 325h253l-201 -325h-254z" unicode="Ý"/>
<glyph horiz-adv-x="1203" glyph-name="Thorn" vert-adv-y="1267" d="M585 281v288h96q85 0 124 16q71 30 71 111q0 67 -51 100q-39 25 -130 25h-110v289h93q140 0 215 -25q130 -45 206 -160q68 -104 68 -228q0 -117 -61 -218q-69 -115 -189 -165q-78 -33 -220 -33h-112zM123 0v1369h295v-1369h-295z" unicode="Þ"/>
<glyph horiz-adv-x="2091" glyph-name="germandbls" vert-adv-y="1267" d="M1956 997h-304q-15 117 -107 117q-56 0 -88 -43q-22 -30 -22 -70q0 -65 62 -94q18 -9 87 -25l-134 -265q-122 34 -189 96q-120 112 -120 288q0 162 107 276q118 126 299 126q138 0 243 -76q155 -113 166 -330zM1112 411h292q10 -72 42 -109q47 -53 120 -53t118 53 q40 47 40 110q0 58 -34 99q-23 27 -78 52l133 262q274 -124 274 -407q0 -181 -120 -312q-134 -144 -334 -144q-152 0 -272 91q-168 126 -181 358zM911 997h-305q-15 117 -107 117q-56 0 -87 -43q-23 -30 -23 -70q0 -65 62 -94q19 -9 88 -25l-134 -265q-123 34 -190 96 q-120 112 -120 288q0 162 107 276q118 126 299 126q138 0 244 -76q154 -112 166 -330zM67 411h291q10 -72 43 -109q46 -53 120 -53q73 0 118 53q40 47 40 110q0 58 -35 99q-23 28 -78 52l134 262q274 -124 274 -407q0 -181 -120 -312q-134 -144 -334 -144q-152 0 -272 91 q-168 126 -181 358z" unicode="ß"/>
<glyph horiz-adv-x="1293" glyph-name="agrave" vert-adv-y="1267" d="M1041 0l-119 229h-409l147 287h116l-309 596l166 320l738 -1432h-330zM-103 0l481 935l164 -321l-316 -614h-329zM792 1475h-254l-201 325h253z" unicode="à"/>
<glyph horiz-adv-x="1293" glyph-name="aacute" vert-adv-y="1267" d="M1041 0l-119 229h-409l147 287h116l-309 596l166 320l738 -1432h-330zM-103 0l481 935l164 -321l-316 -614h-329zM501 1475l202 325h253l-201 -325h-254z" unicode="á"/>
<glyph horiz-adv-x="1293" glyph-name="acircumflex" vert-adv-y="1267" d="M1041 0l-119 229h-409l147 287h116l-309 596l166 320l738 -1432h-330zM-103 0l481 935l164 -321l-316 -614h-329zM288 1475l240 320h236l241 -320h-268l-91 120l-91 -120h-267z" unicode="â"/>
<glyph horiz-adv-x="1293" glyph-name="atilde" vert-adv-y="1267" d="M1041 0l-119 229h-409l147 287h116l-309 596l166 320l738 -1432h-330zM-103 0l481 935l164 -321l-316 -614h-329zM563 1495h-196q3 107 21 154q39 105 141 105q43 0 124 -34q40 -16 52 -16q27 0 32 44h189q-1 -65 -6 -103q-10 -66 -51 -112t-117 -46q-33 0 -110 29 q-37 14 -51 14q-23 0 -28 -35z" unicode="ã"/>
<glyph horiz-adv-x="1293" glyph-name="adieresis" vert-adv-y="1267" d="M1041 0l-119 229h-409l147 287h116l-309 596l166 320l738 -1432h-330zM-103 0l481 935l164 -321l-316 -614h-329zM705 1502v246h244v-246h-244zM345 1502v246h244v-246h-244z" unicode="ä"/>
<glyph horiz-adv-x="1293" glyph-name="aring" vert-adv-y="1267" d="M646 1700q-21 0 -36 -15t-15 -36q0 -22 15 -37t37 -15q21 0 36 15t15 37q0 21 -15 36q-16 15 -37 15zM649 1850q80 0 140 -59q59 -59 59 -142q0 -84 -59 -143t-142 -59t-143 59q-59 60 -59 142q0 85 59 143q61 59 145 59zM1041 0l-119 229h-409l147 287h116l-309 596 l166 320l738 -1432h-330zM-103 0l481 935l164 -321l-316 -614h-329z" unicode="å"/>
<glyph horiz-adv-x="1863" glyph-name="ae" vert-adv-y="1267" d="M1200 1082v287h543v-287h-543zM1200 540v287h543v-287h-543zM1200 0v287h543v-287h-543zM-190 0l776 1142v-521l-72 -107h226v855h295v-1369h-295v227h-421l-154 -227h-355z" unicode="æ"/>
<glyph horiz-adv-x="1445" glyph-name="ccedilla" vert-adv-y="1267" d="M718 -109q101 -2 168 -31q141 -61 141 -210q0 -109 -78 -179q-73 -67 -189 -67q-121 0 -208 80l134 114q36 -14 61 -14q33 0 57 20q28 24 28 61q0 76 -114 82v144zM882 1105v298q146 -19 270 -85q132 -74 221 -194l-231 -183q-102 134 -260 164zM882 -38v298 q160 32 261 163l233 -180q-193 -246 -494 -281zM718 259v-297q-209 30 -362 149q-135 104 -209 256q-72 148 -72 314q0 246 149 440q180 235 494 282v-298q-124 -30 -203 -101q-69 -61 -108 -149q-37 -85 -37 -174q0 -132 76 -243q92 -133 272 -179z" unicode="ç"/>
<glyph horiz-adv-x="1257" glyph-name="egrave" vert-adv-y="1267" d="M599 1082v287h539v-287h-539zM599 540v287h539v-287h-539zM599 0v287h539v-287h-539zM137 0v1369h295v-1369h-295zM775 1475h-254l-201 325h253z" unicode="è"/>
<glyph horiz-adv-x="1257" glyph-name="eacute" vert-adv-y="1267" d="M599 1082v287h539v-287h-539zM599 540v287h539v-287h-539zM599 0v287h539v-287h-539zM137 0v1369h295v-1369h-295zM484 1475l202 325h253l-201 -325h-254z" unicode="é"/>
<glyph horiz-adv-x="1257" glyph-name="ecircumflex" vert-adv-y="1267" d="M599 1082v287h539v-287h-539zM599 540v287h539v-287h-539zM599 0v287h539v-287h-539zM137 0v1369h295v-1369h-295zM271 1475l240 320h236l241 -320h-268l-91 120l-91 -120h-267z" unicode="ê"/>
<glyph horiz-adv-x="1257" glyph-name="edieresis" vert-adv-y="1267" d="M599 1082v287h539v-287h-539zM599 540v287h539v-287h-539zM599 0v287h539v-287h-539zM137 0v1369h295v-1369h-295zM687 1502v246h244v-246h-244zM327 1502v246h244v-246h-244z" unicode="ë"/>
<glyph horiz-adv-x="568" glyph-name="igrave" vert-adv-y="1267" d="M137 0v1369h295v-1369h-295zM430 1475h-254l-201 325h253z" unicode="ì"/>
<glyph horiz-adv-x="568" glyph-name="iacute" vert-adv-y="1267" d="M137 0v1369h295v-1369h-295zM139 1475l202 325h253l-201 -325h-254z" unicode="í"/>
<glyph horiz-adv-x="568" glyph-name="icircumflex" vert-adv-y="1267" d="M137 0v1369h295v-1369h-295zM-74 1475l240 320h236l241 -320h-268l-91 120l-91 -120h-267z" unicode="î"/>
<glyph horiz-adv-x="568" glyph-name="idieresis" vert-adv-y="1267" d="M136 0v1369h295v-1369h-295zM329 1516v232h230v-232h-230zM9 1516v232h230v-232h-230z" unicode="ï"/>
<glyph horiz-adv-x="1506" glyph-name="eth" vert-adv-y="1267" d="M600 561v253h293v-253h-293zM595 0v288h107q124 0 195 28q118 47 189 166q53 91 53 199q0 120 -63 218q-73 114 -196 158q-69 24 -210 24h-75v288h105q169 0 287 -42q193 -68 323 -254q122 -175 122 -388q0 -207 -113 -380q-130 -198 -335 -268q-111 -37 -272 -37h-117z M137 0v561h-164v253h164v555h295v-1369h-295z" unicode="ð"/>
<glyph horiz-adv-x="1482" glyph-name="ntilde" vert-adv-y="1267" d="M137 1023v390l914 -808v764h295v-1413zM137 0v806l295 -258v-548h-295zM658 1495h-196q3 107 21 154q39 105 141 105q43 0 124 -34q40 -16 52 -16q27 0 32 44h189q-1 -65 -6 -103q-10 -66 -51 -112t-117 -46q-33 0 -110 29q-37 14 -51 14q-23 0 -28 -35z" unicode="ñ"/>
<glyph horiz-adv-x="1582" glyph-name="ograve" vert-adv-y="1267" d="M373 765h-298q26 213 162 377q102 122 245 191q147 70 309 70q211 0 390 -115q195 -125 283 -349q30 -78 43 -174h-298q-27 105 -80 175q-57 75 -141 120q-94 49 -199 49q-142 0 -255 -86q-125 -96 -161 -258zM75 600h298q22 -101 78 -174q61 -81 149 -125 q90 -45 189 -45q146 0 261 89q117 91 159 255h298q-30 -223 -172 -389q-101 -117 -243 -183q-144 -66 -301 -66q-220 0 -403 124q-189 129 -271 342q-31 77 -42 172zM937 1475h-254l-201 325h253z" unicode="ò"/>
<glyph horiz-adv-x="1582" glyph-name="oacute" vert-adv-y="1267" d="M373 765h-298q26 213 162 377q102 122 245 191q147 70 309 70q211 0 390 -115q195 -125 283 -349q30 -78 43 -174h-298q-27 105 -80 175q-57 75 -141 120q-94 49 -199 49q-142 0 -255 -86q-125 -96 -161 -258zM75 600h298q22 -101 78 -174q61 -81 149 -125 q90 -45 189 -45q146 0 261 89q117 91 159 255h298q-30 -223 -172 -389q-101 -117 -243 -183q-144 -66 -301 -66q-220 0 -403 124q-189 129 -271 342q-31 77 -42 172zM645 1475l202 325h253l-201 -325h-254z" unicode="ó"/>
<glyph horiz-adv-x="1582" glyph-name="ocircumflex" vert-adv-y="1267" d="M373 765h-298q26 213 162 377q102 122 245 191q147 70 309 70q211 0 390 -115q195 -125 283 -349q30 -78 43 -174h-298q-27 105 -80 175q-57 75 -141 120q-94 49 -199 49q-142 0 -255 -86q-125 -96 -161 -258zM75 600h298q22 -101 78 -174q61 -81 149 -125 q90 -45 189 -45q146 0 261 89q117 91 159 255h298q-30 -223 -172 -389q-101 -117 -243 -183q-144 -66 -301 -66q-220 0 -403 124q-189 129 -271 342q-31 77 -42 172zM433 1475l240 320h236l241 -320h-268l-91 120l-91 -120h-267z" unicode="ô"/>
<glyph horiz-adv-x="1582" glyph-name="otilde" vert-adv-y="1267" d="M373 765h-298q26 213 162 377q102 122 245 191q147 70 309 70q211 0 390 -115q195 -125 283 -349q30 -78 43 -174h-298q-27 105 -80 175q-57 75 -141 120q-94 49 -199 49q-142 0 -255 -86q-125 -96 -161 -258zM75 600h298q22 -101 78 -174q61 -81 149 -125 q90 -45 189 -45q146 0 261 89q117 91 159 255h298q-30 -223 -172 -389q-101 -117 -243 -183q-144 -66 -301 -66q-220 0 -403 124q-189 129 -271 342q-31 77 -42 172zM707 1495h-196q3 107 21 154q39 105 141 105q43 0 124 -34q40 -16 52 -16q27 0 32 44h189q-1 -65 -6 -103 q-10 -66 -51 -112t-117 -46q-33 0 -110 29q-37 14 -51 14q-23 0 -28 -35z" unicode="õ"/>
<glyph horiz-adv-x="1582" glyph-name="odieresis" vert-adv-y="1267" d="M849 1502v246h244v-246h-244zM489 1502v246h244v-246h-244zM373 765h-298q26 213 162 377q102 122 245 191q147 70 309 70q211 0 390 -115q195 -125 283 -349q30 -78 43 -174h-298q-27 105 -80 175q-57 75 -141 120q-94 49 -199 49q-142 0 -255 -86q-125 -96 -161 -258z M75 600h298q22 -101 78 -174q61 -81 149 -125q90 -45 189 -45q146 0 261 89q117 91 159 255h298q-30 -223 -172 -389q-101 -117 -243 -183q-144 -66 -301 -66q-220 0 -403 124q-189 129 -271 342q-31 77 -42 172z" unicode="ö"/>
<glyph horiz-adv-x="1229" glyph-name="divide" vert-adv-y="1267" d="M467 990v288h295v-288h-295zM467 88v288h295v-288h-295zM75 538v288h1079v-288h-1079z" unicode="÷"/>
<glyph horiz-adv-x="1582" glyph-name="oslash" vert-adv-y="1267" d="M1183 1285l126 127l207 -202l-128 -128q97 -145 117 -317h-298q-27 105 -80 175q-57 75 -141 120q-94 49 -198 49q-142 0 -256 -86q-125 -96 -161 -258h-298q26 213 163 377q102 122 245 191q147 70 307 70q212 0 395 -118zM188 287q-97 149 -115 313h298 q22 -101 78 -174q61 -81 150 -125q89 -45 189 -45q145 0 261 89q117 91 158 255h298q-30 -223 -172 -389q-100 -117 -243 -183q-144 -66 -300 -66q-215 0 -399 122l-124 -125l-201 205z" unicode="ø"/>
<glyph horiz-adv-x="1372" glyph-name="ugrave" vert-adv-y="1267" d="M954 1369h295v-781q-1 -176 -49 -288q-69 -157 -233 -254q-100 -58 -201 -73v301q96 32 146 107q29 45 37 119q5 40 5 115v754zM123 1369h295v-754q0 -107 12 -156q28 -132 173 -185v-301q-100 16 -198 73q-164 97 -233 254q-48 112 -49 288v781zM832 1475h-254l-201 325 h253z" unicode="ù"/>
<glyph horiz-adv-x="1372" glyph-name="uacute" vert-adv-y="1267" d="M954 1369h295v-781q-1 -176 -49 -288q-69 -157 -233 -254q-100 -58 -201 -73v301q96 32 146 107q29 45 37 119q5 40 5 115v754zM123 1369h295v-754q0 -107 12 -156q28 -132 173 -185v-301q-100 16 -198 73q-164 97 -233 254q-48 112 -49 288v781zM540 1475l202 325h253 l-201 -325h-254z" unicode="ú"/>
<glyph horiz-adv-x="1372" glyph-name="ucircumflex" vert-adv-y="1267" d="M954 1369h295v-781q-1 -176 -49 -288q-69 -157 -233 -254q-100 -58 -201 -73v301q96 32 146 107q29 45 37 119q5 40 5 115v754zM123 1369h295v-754q0 -107 12 -156q28 -132 173 -185v-301q-100 16 -198 73q-164 97 -233 254q-48 112 -49 288v781zM328 1475l240 320h236 l241 -320h-268l-91 120l-91 -120h-267z" unicode="û"/>
<glyph horiz-adv-x="1372" glyph-name="udieresis" vert-adv-y="1267" d="M954 1369h295v-781q-1 -176 -49 -288q-69 -157 -233 -254q-100 -58 -201 -73v301q96 32 146 107q29 45 37 119q5 40 5 115v754zM123 1369h295v-754q0 -107 12 -156q28 -132 173 -185v-301q-100 16 -198 73q-164 97 -233 254q-48 112 -49 288v781zM744 1502v246h244v-246 h-244zM384 1502v246h244v-246h-244z" unicode="ü"/>
<glyph horiz-adv-x="1050" glyph-name="yacute" vert-adv-y="1267" d="M232 850l-367 519h360l190 -270zM336 0v702l488 667h364l-557 -763v-606h-295zM420 1475l202 325h253l-201 -325h-254z" unicode="ý"/>
<glyph horiz-adv-x="1203" glyph-name="thorn" vert-adv-y="1267" d="M585 281v288h96q85 0 124 16q71 30 71 111q0 67 -51 100q-39 25 -130 25h-110v289h93q140 0 215 -25q130 -45 206 -160q68 -104 68 -228q0 -117 -61 -218q-69 -115 -189 -165q-78 -33 -220 -33h-112zM123 0v1369h295v-1369h-295z" unicode="þ"/>
<glyph glyph-name="circumflex" vert-adv-y="1267" d="M154 1475l240 320h236l241 -320h-268l-91 120l-91 -120h-267z" unicode="ˆ"/>
<glyph glyph-name="tilde" vert-adv-y="1267" d="M429 1495h-196q3 107 21 154q39 105 141 105q43 0 124 -34q40 -16 52 -16q27 0 32 44h189q-1 -65 -6 -103q-10 -66 -51 -112t-117 -46q-33 0 -110 29q-37 14 -51 14q-23 0 -28 -35z" unicode="˜"/>
<glyph glyph-name="_262" vert-adv-y="1267" d="M557 1516v232h230v-232h-230zM237 1516v232h230v-232h-230z"/>
</font>
</defs>
</svg>
